<?xml version="1.0" encoding="iso-8859-1"?>
<!-- Generator: Adobe Illustrator 19.0.0, SVG Export Plug-In . SVG Version: 6.00 Build 0)  -->
<svg xmlns="http://www.w3.org/2000/svg" xmlns:xlink="http://www.w3.org/1999/xlink" version="1.1" id="Layer_1" x="0px" y="0px" viewBox="0 0 512 512" style="enable-background:new 0 0 512 512;" xml:space="preserve">
<path style="fill:#00C3FF;" d="M466.756,42.556H45.244c-20.243,0-36.653,16.41-36.653,36.653v256.573  c0,20.243,16.41,36.653,36.653,36.653h256.573v87.837c0,8.163,9.87,12.253,15.643,6.48l94.317-94.317h54.98  c20.243,0,36.653-16.41,36.653-36.653V79.209C503.409,58.966,486.999,42.556,466.756,42.556z"/>
<g>
	<circle style="fill:#FFFFFF;" cx="127.714" cy="207.492" r="36.653"/>
	<circle style="fill:#FFFFFF;" cx="256" cy="207.492" r="36.653"/>
	<circle style="fill:#FFFFFF;" cx="384.286" cy="207.492" r="36.653"/>
</g>
<g>
	<path style="fill:#00AAF0;" d="M45.244,335.782V79.209c0-20.243,16.41-36.653,36.653-36.653H45.244   c-20.243,0-36.653,16.41-36.653,36.653v256.573c0,20.243,16.41,36.653,36.653,36.653h36.653   C61.654,372.435,45.244,356.024,45.244,335.782z"/>
	<path style="fill:#00AAF0;" d="M320.143,372.435h-18.327v87.837c0,8.163,9.87,12.253,15.643,6.48l21.01-21.01v-54.98   C338.47,380.639,330.265,372.435,320.143,372.435z"/>
</g>
<path d="M289.356,190.009c-4.595,1.183-7.36,5.867-6.177,10.461c0.586,2.278,0.884,4.641,0.884,7.025  c0,15.473-12.589,28.063-28.063,28.063s-28.063-12.589-28.063-28.063s12.589-28.063,28.063-28.063c2.396,0,4.772,0.3,7.061,0.893  c4.593,1.19,9.28-1.569,10.47-6.162s-1.569-9.28-6.162-10.47c-3.696-0.958-7.521-1.442-11.369-1.442  c-24.947,0-45.244,20.297-45.244,45.244s20.297,45.244,45.244,45.244s45.244-20.297,45.244-45.244c0-3.828-0.48-7.633-1.427-11.31  C298.633,191.591,293.949,188.826,289.356,190.009z"/>
<path d="M417.642,190.009c-4.595,1.183-7.36,5.867-6.177,10.461c0.586,2.278,0.884,4.641,0.884,7.025  c0,15.473-12.589,28.063-28.063,28.063c-15.473,0-28.063-12.589-28.063-28.063s12.589-28.063,28.063-28.063  c2.396,0,4.772,0.3,7.061,0.893c4.594,1.19,9.28-1.569,10.47-6.162s-1.569-9.28-6.162-10.47c-3.696-0.958-7.521-1.442-11.369-1.442  c-24.947,0-45.244,20.297-45.244,45.244s20.297,45.244,45.244,45.244s45.244-20.297,45.244-45.244c0-3.828-0.48-7.633-1.427-11.31  C426.92,191.591,422.235,188.826,417.642,190.009z"/>
<path d="M161.069,190.009c-4.595,1.183-7.36,5.867-6.177,10.461c0.586,2.278,0.884,4.641,0.884,7.025  c0,15.473-12.589,28.063-28.063,28.063s-28.063-12.589-28.063-28.063s12.589-28.063,28.063-28.063c2.396,0,4.772,0.3,7.061,0.893  c4.592,1.19,9.28-1.569,10.47-6.162c1.19-4.593-1.569-9.28-6.162-10.47c-3.696-0.958-7.521-1.442-11.369-1.442  c-24.947,0-45.244,20.297-45.244,45.244s20.297,45.244,45.244,45.244s45.244-20.297,45.244-45.244c0-3.828-0.48-7.633-1.427-11.31  C170.347,191.591,165.661,188.826,161.069,190.009z"/>
<path d="M466.756,33.965H45.244C20.297,33.965,0,54.262,0,79.209v256.573c0,24.948,20.297,45.244,45.244,45.244h247.982v79.247  c0,7.207,4.302,13.645,10.959,16.402c2.209,0.915,4.522,1.361,6.813,1.361c4.61,0,9.131-1.804,12.535-5.208l91.8-91.8h51.422  c24.947,0,45.244-20.296,45.244-45.244V79.21C512,54.262,491.703,33.965,466.756,33.965z M494.819,335.782  c0,15.473-12.589,28.063-28.063,28.063h-54.98c-2.278,0-4.464,0.905-6.074,2.516l-94.317,94.317c-0.144,0.144-0.27,0.27-0.624,0.124  c-0.354-0.145-0.354-0.324-0.354-0.529v-87.837c0-4.744-3.846-8.591-8.591-8.591H45.244c-15.473,0-28.063-12.589-28.063-28.063  V79.209c0-15.473,12.589-28.063,28.063-28.063h421.512c15.473,0,28.063,12.589,28.063,28.063V335.782z"/>
<g>
</g>
<g>
</g>
<g>
</g>
<g>
</g>
<g>
</g>
<g>
</g>
<g>
</g>
<g>
</g>
<g>
</g>
<g>
</g>
<g>
</g>
<g>
</g>
<g>
</g>
<g>
</g>
<g>
</g>
</svg>
